<?xml version="1.0" standalone="no"?>
<!DOCTYPE svg PUBLIC "-//W3C//DTD SVG 20010904//EN"
 "http://www.w3.org/TR/2001/REC-SVG-20010904/DTD/svg10.dtd">
<svg version="1.0" xmlns="http://www.w3.org/2000/svg"
 width="700.000000pt" height="700.000000pt" viewBox="0 0 700.000000 700.000000"
 preserveAspectRatio="xMidYMid meet">
<metadata>
Created by potrace 1.14, written by Peter Selinger 2001-2017
</metadata>
<g transform="translate(0.000000,700.000000) scale(0.100000,-0.100000)"
fill="#000000" stroke="none">
<path d="M1871 6560 c-4 -8 -6 -87 -6 -175 l1 -160 769 -1 c685 -1 848 -4 928
-20 12 -2 38 -7 57 -10 19 -4 44 -9 55 -11 11 -2 30 -6 42 -9 62 -13 241 -82
334 -130 251 -128 483 -340 637 -582 23 -37 45 -74 48 -82 3 -8 12 -26 20 -40
102 -174 172 -370 192 -535 13 -108 6 -334 -12 -425 -37 -177 -91 -308 -211
-508 -144 -242 -243 -350 -490 -540 -31 -24 -171 -103 -240 -136 -98 -47 -253
-99 -360 -119 -44 -9 -96 -19 -115 -23 -29 -6 -639 -14 -1027 -14 l-103 0 0
-1220 0 -1219 173 2 172 2 1 1038 c1 571 4 1040 6 1043 3 2 174 6 379 8 206 2
383 5 394 8 11 3 47 9 80 13 83 10 244 48 345 83 415 141 768 414 1021 788 27
40 49 75 49 78 0 2 21 40 47 83 165 278 246 563 247 873 1 104 -11 276 -19
290 -2 3 -6 22 -9 43 -41 257 -246 670 -456 917 -63 75 -176 188 -235 235 -27
22 -59 48 -70 58 -41 37 -213 145 -310 194 -157 79 -368 153 -510 178 -22 4
-51 9 -65 11 -14 3 -36 7 -50 9 -71 13 -292 17 -963 19 -648 1 -740 -1 -746
-14z"/>
<path d="M2970 2436 l0 -174 445 -1 c428 0 447 -1 478 -20 33 -20 87 -81 99
-111 15 -38 -74 -169 -132 -193 -16 -6 -180 -11 -445 -12 -231 -2 -426 -3
-432 -4 -10 -1 -13 -43 -13 -176 l0 -175 522 1 523 1 33 -39 c54 -62 85 -130
79 -175 -6 -45 -60 -130 -98 -152 -22 -13 -99 -15 -587 -13 -369 1 -562 -1
-563 -8 -3 -33 -4 -553 -1 -567 4 -16 21 -17 176 -15 l171 2 0 115 c0 63 3
117 6 120 4 3 187 5 406 4 267 0 415 3 448 11 76 17 142 54 201 112 146 144
215 324 185 488 -18 102 -122 285 -203 356 -23 21 -23 19 10 76 54 94 76 213
56 308 -26 124 -144 277 -271 352 -103 60 -115 61 -625 62 l-468 1 0 -174z"/>
</g>
</svg>
